<svg xmlns="http://www.w3.org/2000/svg" viewBox="0 0 512 512">
  <rect width="512" height="512" rx="112" fill="#080808"/>
  <g transform="translate(76, 122) scale(0.592)">
    <path fill="#fefefe" d="M608.81,448.3c-1.23-4.69-3.36-9.33-5.18-13.73-49.19-118.89-97.87-239-149.85-356.65C432.11,28.88,409.22,4.63,352.24,1.63c-40.91-2.16-95.05-2.18-135.96,0-58.74,3.11-75.57,33.59-97.53,81.29-23.4,50.82-45.58,102.55-67.93,153.85-14.69,33.72-35.96,74.92-46.79,109.05-15.82,49.84,16.6,101.92,69.41,105.45,41.16,2.75,85.33-2.17,126.82,0,.09,0,.19,0,.28,0,17.28-1.13,29.47-6.68,43.17-16.62,55.7-40.4,107.36-91.96,162.17-134.08.18-.13.37-.24.57-.32,1.21-.47,2.56.14,3.01,1.35l54.58,148.12c.33.91,1.2,1.51,2.17,1.51h140.38c1.53,0,2.62-1.45,2.23-2.93ZM394.99,121.67c-70.47,65.35-149.16,122.21-222.51,184.34-3,1.78-11.01,9.8-14.09,6.7-2.16-2.17,2.42-11.57,3.6-14.43,26.12-54.19,48.5-111.48,73.92-165.84,8.25-17.25,13.21-23.92,33.6-25.34,40.84-2.84,83.75.37,126.07,0,11.68.35,3.95,9.77-.61,14.58Z"/>
  </g>
</svg>
